<svg width="32" height="32" viewBox="0 0 32 32" fill="none" xmlns="http://www.w3.org/2000/svg">
<g id="icon-scene-01">
<path id="Vector" d="M15.9992 3.19995C8.94261 3.19995 3.19922 8.94334 3.19922 16C3.19922 23.0566 8.94261 28.8 15.9992 28.8C23.0558 28.8 28.7992 23.0566 28.7992 16C28.7992 8.94334 23.0558 3.19995 15.9992 3.19995ZM15.9992 5.33328C21.9029 5.33328 26.6659 10.0963 26.6659 16C26.6659 21.9036 21.9029 26.6666 15.9992 26.6666C10.0955 26.6666 5.33255 21.9036 5.33255 16C5.33255 10.0963 10.0955 5.33328 15.9992 5.33328ZM8.53255 13.8666C7.94375 13.8666 7.46589 14.3445 7.46589 14.9333V16C7.46589 17.7674 8.89842 19.2 10.6659 19.2H11.7326C13.5 19.2 14.9326 17.7674 14.9326 16V14.9333C14.9326 14.3445 14.4547 13.8666 13.8659 13.8666H8.53255ZM18.1326 13.8666C17.5438 13.8666 17.0659 14.3445 17.0659 14.9333V16C17.0659 17.7674 18.4984 19.2 20.2659 19.2H21.3326C23.1 19.2 24.5326 17.7674 24.5326 16V14.9333C24.5326 14.3445 24.0547 13.8666 23.4659 13.8666H18.1326ZM19.8596 21.325C19.6559 21.3222 19.4556 21.3779 19.2826 21.4854C18.318 22.0645 17.2023 22.4 15.9992 22.4C14.7961 22.4 13.6804 22.0645 12.7159 21.4854C12.5957 21.4111 12.462 21.3615 12.3225 21.3393C12.183 21.3172 12.0405 21.323 11.9033 21.3563C11.766 21.3897 11.6368 21.4499 11.523 21.5336C11.4092 21.6173 11.3132 21.7228 11.2405 21.8439C11.1679 21.965 11.1199 22.0993 11.0996 22.2391C11.0792 22.3789 11.0868 22.5213 11.1219 22.6581C11.157 22.7949 11.219 22.9234 11.3041 23.0361C11.3893 23.1488 11.4959 23.2434 11.618 23.3145C12.8955 24.0816 14.397 24.5333 15.9992 24.5333C17.6014 24.5333 19.1029 24.0816 20.3805 23.3145C20.5824 23.1974 20.7404 23.0173 20.8302 22.8018C20.92 22.5863 20.9366 22.3473 20.8774 22.1215C20.8183 21.8956 20.6867 21.6954 20.5029 21.5515C20.319 21.4077 20.0931 21.3281 19.8596 21.325Z" fill="white"/>
</g>
</svg>
